<svg xmlns="http://www.w3.org/2000/svg" width="1200" height="232" viewBox="0 0 1200 232" role="img" aria-labelledby="title desc"><title id="title">Browser Lab website illustration</title><desc id="desc">A custom graphical illustration for the HunLuanZhiZhu GitHub profile.</desc>
<defs><linearGradient id="b" x2="1" y2="1"><stop stop-color="#112638"/><stop offset=".53" stop-color="#10213A"/><stop offset="1" stop-color="#171735"/></linearGradient><linearGradient id="line"><stop stop-color="#B6FFD7"/><stop offset=".6" stop-color="#85DAFF"/><stop offset="1" stop-color="#BFACFF"/></linearGradient><pattern id="dots" width="28" height="28" patternUnits="userSpaceOnUse"><circle cx="2" cy="2" r="1" fill="#DFEEFF" opacity=".12"/></pattern></defs>
<rect width="1200" height="232" rx="24" fill="url(#b)"/><rect width="1200" height="232" rx="24" fill="url(#dots)"/>
<text x="45" y="51" font-size="13" fill="#9EF5D4" letter-spacing="3" font-family="ui-monospace,Consolas,monospace">LIVE / INTERACTIVE SHOWCASE</text>
<text x="45" y="108" font-size="49" font-family="Inter,Segoe UI,Arial,sans-serif" fill="#F6FBFF" font-weight="760">The Browser Lab</text>
<text x="47" y="145" font-size="18" font-family="Inter,Segoe UI,Arial,sans-serif" fill="#ADC6DA">Experiments you can open, test and explore.</text>
<rect x="45" y="171" width="216" height="34" rx="17" stroke="#A5FFDA" stroke-opacity=".52" fill="#A5FFDA" fill-opacity=".10"/>
<text x="62" y="193" fill="#B8FFE5" font-family="ui-monospace,Consolas,monospace" font-size="14">zyh.sryze.cc   ↗</text>
<g transform="translate(683 35)">
<rect width="460" height="166" rx="17" fill="#091524" stroke="#A6C7E4" stroke-opacity=".31" stroke-width="2"/>
<path d="M0 37H460" stroke="#A6C7E4" stroke-opacity=".23"/>
<circle cx="21" cy="19" r="5" fill="#FF7890"/><circle cx="40" cy="19" r="5" fill="#FAD67C"/><circle cx="59" cy="19" r="5" fill="#ADFFD5"/>
<rect x="83" y="10" width="225" height="18" rx="9" fill="#14263B"/><text x="100" y="23" fill="#90ABC1" font-size="11" font-family="ui-monospace,Consolas,monospace">https://zyh.sryze.cc/</text>
<g fill="none" stroke="url(#line)" stroke-width="2"><path d="M23 130L72 81L112 115L176 64L221 119L281 70L328 109"/><path d="M350 71L392 114L429 79"/></g>
<g fill="#A2FADC"><circle cx="72" cy="81" r="5"/><circle cx="176" cy="64" r="5"/><circle cx="281" cy="70" r="5"/></g>
<g font-family="ui-monospace,Consolas,monospace" fill="#87A7C4" font-size="10"><text x="24" y="63">EXPERIMENT 01</text><text x="24" y="151">WEBGL · WASM · SVG</text><text x="348" y="148">OPEN ↗</text></g>
</g></svg>