<svg xmlns="http://www.w3.org/2000/svg" width="560" height="230" viewBox="0 0 560 230" role="img" aria-labelledby="title desc"><title id="title">mini-proxy project illustration</title><desc id="desc">A custom graphical illustration for the HunLuanZhiZhu GitHub profile.</desc>
<defs><linearGradient id="bg" x2="1" y2="1"><stop stop-color="#0C172A"/><stop offset="1" stop-color="#101C32"/></linearGradient><radialGradient id="aura"><stop stop-color="#89DAFF" stop-opacity=".18"/><stop offset="1" stop-color="#89DAFF" stop-opacity="0"/></radialGradient><pattern id="grid" width="22" height="22" patternUnits="userSpaceOnUse"><path d="M22 0H0V22" fill="none" stroke="#F1F8FF" stroke-opacity=".04"/></pattern></defs>
<rect width="560" height="230" rx="19" fill="url(#bg)"/><rect width="560" height="230" rx="19" fill="url(#grid)"/>
<circle cx="420" cy="110" r="165" fill="url(#aura)"/>
<rect x="8" y="8" width="544" height="214" rx="14" fill="none" stroke="#89DAFF" stroke-opacity=".28"/>
<path d="M27 26H95" stroke="#89DAFF" stroke-width="3"/>
<text x="27" y="57" fill="#89DAFF" font-family="ui-monospace,Consolas,monospace" font-size="12" letter-spacing="2">MODEL API / RUST</text>
<text x="26" y="112" fill="#F6FAFF" font-family="Inter,Segoe UI,Arial,sans-serif" font-size="37" letter-spacing="-1" font-weight="760">mini-proxy</text>
<text x="28" y="144" fill="#ACC0D5" font-size="14" font-family="Inter,Segoe UI,Arial,sans-serif">Lightweight model API gateway</text>
<rect x="26" y="178" width="93" height="25" rx="12.5" fill="#89DAFF" fill-opacity=".12" stroke="#89DAFF" stroke-opacity=".32"/>
<text x="38" y="195" fill="#89DAFF" font-family="ui-monospace,Consolas,monospace" font-size="11">REPO  03</text>
<g transform="translate(331 31)"><g fill="none" stroke="#89DAFF" stroke-linecap="round" stroke-linejoin="round"><path d="M12 26H85Q103 26 103 49V99Q103 123 126 123H202M12 77H85Q103 77 103 93M12 129H85Q103 129 103 109" stroke-width="3"/><path d="M182 112L202 123L182 134" stroke-width="3"/></g><g fill="#13283E" stroke="#89DAFF" stroke-width="2"><rect x="0" y="14" width="31" height="24" rx="6"/><rect x="0" y="65" width="31" height="24" rx="6"/><rect x="0" y="117" width="31" height="24" rx="6"/><rect x="153" y="110" width="24" height="25" rx="7"/></g></g>
<path d="M527 190L537 180M527 180H537V190" stroke="#89DAFF" stroke-width="2" fill="none" stroke-linecap="round"/>
</svg>